<svg xmlns="http://www.w3.org/2000/svg" viewBox="0 0 214.565 214.565">
  <path id="js-square" d="M191.576,32H22.989A23,23,0,0,0,0,54.989V223.576a23,23,0,0,0,22.989,22.989H191.576a23,23,0,0,0,22.989-22.989V54.989A23,23,0,0,0,191.576,32Zm-74.81,167.341c0,20.882-12.261,30.413-30.125,30.413-16.14,0-25.48-8.334-30.269-18.439L72.8,201.4c3.161,5.6,6.035,10.345,12.979,10.345,6.609,0,10.824-2.586,10.824-12.692V130.518h20.163v68.824Zm47.7,30.413c-18.727,0-30.844-8.908-36.735-20.594l16.428-9.483c4.31,7.04,9.962,12.261,19.876,12.261,8.334,0,13.7-4.167,13.7-9.962,0-6.9-5.46-9.339-14.7-13.41L158,186.41c-14.56-6.178-24.186-13.985-24.186-30.413,0-15.134,11.542-26.629,29.5-26.629,12.836,0,22.031,4.454,28.641,16.14L176.25,155.566c-3.448-6.178-7.184-8.621-12.979-8.621-5.891,0-9.627,3.736-9.627,8.621,0,6.035,3.736,8.477,12.4,12.261l5.029,2.155c17.146,7.328,26.773,14.847,26.773,31.706C197.85,219.792,183.577,229.754,164.468,229.754Z" transform="translate(0 -32)"/>
</svg>
