<svg xmlns="http://www.w3.org/2000/svg" viewBox="0 0 214.565 214.565">
  <path id="twitter-square" d="M191.576,32H22.989A23,23,0,0,0,0,54.989V223.576a23,23,0,0,0,22.989,22.989H191.576a23,23,0,0,0,22.989-22.989V54.989A23,23,0,0,0,191.576,32Zm-23.42,76.056c.1,1.341.1,2.73.1,4.071,0,41.524-31.61,89.37-89.37,89.37a88.958,88.958,0,0,1-48.229-14.081,66.174,66.174,0,0,0,7.567.383A62.978,62.978,0,0,0,77.2,174.389,31.453,31.453,0,0,1,47.846,152.6a33.854,33.854,0,0,0,14.177-.575,31.414,31.414,0,0,1-25.144-30.844V120.8a31.391,31.391,0,0,0,14.177,3.975A31.345,31.345,0,0,1,37.07,98.62a31.019,31.019,0,0,1,4.263-15.853,89.19,89.19,0,0,0,64.753,32.855c-4.454-21.313,11.495-38.6,30.652-38.6a31.3,31.3,0,0,1,22.941,9.914A61.552,61.552,0,0,0,179.6,79.367a31.33,31.33,0,0,1-13.793,17.29,62.509,62.509,0,0,0,18.1-4.885A66.117,66.117,0,0,1,168.156,108.056Z" transform="translate(0 -32)"/>
</svg>
